<svg xmlns="http://www.w3.org/2000/svg" viewBox="0 0 257.723 413.927"><defs><style>.a{fill:#1f28cf;}.a,.b,.c,.d,.e,.f,.g,.h{fill-rule:evenodd;}.b{fill:#2b44ff;}.c{fill:#191847;}.d{fill:#b28b67;}.e{fill:#dde3e9;}.f{fill:#2f3676;}.g{fill:rgba(0,0,0,0.1);}.h{fill:rgba(255,255,255,0.2);}</style></defs><g transform="translate(-992 -115.374)"><g transform="translate(992 290.301)"><path class="a" d="M128,0l48.082,127.227L209.783,221H229L182.674,0Z" transform="translate(-14.09)"/><path class="b" d="M116.117,0c-.523,43.654-.145,102.427-1.363,105.149Q113.536,107.87,39,167.157L48.9,184q88.492-57.066,93.016-64.669C146.445,111.728,169.174,41.763,181,0Z" transform="translate(-21.574)"/><g transform="matrix(0.643, 0.766, -0.766, 0.643, 16.087, 164.993)"><path class="c" d="M0,21,1,0H22Q36.936,10.5,61,17v4H23L10,19v2Z" transform="translate(0)"/></g><g transform="translate(196.723 218)"><path class="c" d="M0,40,1,19H22Q36.936,29.5,61,36v4H23L10,38v2Z" transform="translate(0 -19)"/></g></g><g transform="matrix(0.998, 0.07, -0.07, 0.998, 1101.169, 114.188)"><path class="c" d="M54.464,18.417c4.194,12.79,9.66,41.539,4.082,46.049H23.261q-.005-.078-.011-.155C10.172,63.113,0,53.936,0,42.794V21.649C0,9.692,11.712,0,26.16,0h2.433C41.714,0,52.578,7.993,54.464,18.417Z" transform="translate(17.005 0)"/><g transform="translate(19.784 4.999)"><path class="d" d="M10.326,43.1C4.567,36.344.669,28.06,1.321,18.778,3.2-7.967,40.427-2.084,47.669,11.415s6.381,47.739-2.978,50.152c-3.733.962-11.684-1.395-19.777-6.273l-.377,39.092L0,91.231Z"/></g><path class="c" d="M38.218,42.335C39.6,57.179,40.463,57.526,36.345,61.55H.1C-1.3,37.132,12.2,23.132,13.342,22.117,19.578,8.3,33.883,0,43.531,0,58,0,62.571,6.734,66.461,12.451,63.552,22.431,52.266,23.91,42.237,30.131a6.874,6.874,0,1,0-4.331,12.211Q38.063,42.342,38.218,42.335Z" transform="translate(0 1.25)"/></g><g transform="matrix(0.995, 0.105, -0.105, 0.995, 1036.162, 176.505)"><path class="d" d="M161.788,0l28.666,27.635a87.144,87.144,0,0,1,20.5,11.646c1.2,1.428,2.5,4.164-3.134,2.94s-11.621-2.262-12.681-.45,2.062,4.587.1,6.958q-1.958,2.371-13.169-15.082L152.267,16.28ZM34.552,3.9,55.7,3.98q-19.586,62.48-21.147,66.3c-2.342,5.735,2.613,14.468,4.732,19.162-6.9,3.052-6.166-8.25-14.872-4.248C16.467,88.85,10.422,95.47,1.241,89.872c-1.129-.688-2.366-3.28.623-5.3,7.445-5.045,18.175-13.875,19.625-16.781Q24.454,61.841,34.552,3.9Z" transform="translate(0 91.283)"/><path class="c" d="M0,2.231,8.485,0Q35.593,53.627,95,94.194l-24.957,36.37C29.32,90.685,2.652,48.2,0,2.231Z" transform="translate(96.224 3.11) rotate(5)"/><path class="e" d="M0,114H77C66.707,88.973,66.86,65.254,62.456,44.336,59.314,29.413,50.241,16.285,50.241,3.461L27.014,0C8.76,29.358,3.6,65.5,0,114Z" transform="translate(56.89 0)"/><path class="f" d="M61.522.016,61.532,0h1.516q2.721.094,8.29.338L76.95,16.377q.891,29.333,10.4,118.229H36.876q.2,6.14.655,12.394H0Q8.421,52,61.5,0l.018.016Z" transform="translate(20.837 0)"/><path class="g" d="M3.487,0q2.155,38.272,10.79,52.767H.166A263.839,263.839,0,0,1,3.487,0Z" transform="translate(58.297 83.617)"/><path class="h" d="M0,11.571,24.889,0V11.571Z" transform="translate(69.881 93.607)"/></g></g></svg>